<mxfile host="app.diagrams.net" modified="2024-06-03T13:29:52.180Z" agent="Mozilla/5.0 (Windows NT 10.0; Win64; x64) AppleWebKit/537.36 (KHTML, like Gecko) Chrome/125.0.0.0 Safari/537.36" etag="Z9C7eGnI_FpwvzB-19gE" version="24.4.13" type="device">
  <diagram name="Trang-1" id="NyjEA2hBR7OkzKgv4DNk">
    <mxGraphModel dx="1434" dy="1584" grid="0" gridSize="10" guides="1" tooltips="1" connect="1" arrows="1" fold="1" page="0" pageScale="1" pageWidth="827" pageHeight="1169" math="0" shadow="0">
      <root>
        <mxCell id="0" />
        <mxCell id="1" parent="0" />
        <mxCell id="Mh-NqhdQAYjnupKS_QTz-1" value="Start" style="ellipse;whiteSpace=wrap;html=1;fontStyle=1;fontFamily=Helvetica;fontSize=18;strokeWidth=2;fillColor=#60a917;strokeColor=#60A917;fontColor=#ffffff;" parent="1" vertex="1">
          <mxGeometry x="80" y="-257" width="200" height="90" as="geometry" />
        </mxCell>
        <mxCell id="Mh-NqhdQAYjnupKS_QTz-3" value="Red LEDs OFF" style="rounded=0;whiteSpace=wrap;html=1;fontStyle=1;fontFamily=Helvetica;fontSize=18;strokeWidth=2;fillColor=#8B4CA6;fontColor=#ffffff;strokeColor=#8B4CA6;" parent="1" vertex="1">
          <mxGeometry x="398" y="-113" width="200" height="90" as="geometry" />
        </mxCell>
        <mxCell id="Mh-NqhdQAYjnupKS_QTz-9" value="End" style="ellipse;whiteSpace=wrap;html=1;fontStyle=1;fontFamily=Helvetica;fontSize=18;strokeWidth=2;fillColor=#60a917;strokeColor=#60A917;fontColor=#ffffff;" parent="1" vertex="1">
          <mxGeometry x="398" y="58" width="200" height="90" as="geometry" />
        </mxCell>
        <mxCell id="Mh-NqhdQAYjnupKS_QTz-10" value="Red LEDs ON&lt;div&gt;For warning&lt;/div&gt;" style="rounded=0;whiteSpace=wrap;html=1;fontStyle=1;fontFamily=Helvetica;fontSize=18;strokeWidth=2;fillColor=#8B4CA6;fontColor=#ffffff;strokeColor=#8B4CA6;" parent="1" vertex="1">
          <mxGeometry x="80" y="58" width="200" height="90" as="geometry" />
        </mxCell>
        <mxCell id="Mh-NqhdQAYjnupKS_QTz-23" value="Flow Chart 5.2.2" style="text;html=1;align=center;verticalAlign=middle;whiteSpace=wrap;rounded=0;fontSize=42;fontStyle=1" parent="1" vertex="1">
          <mxGeometry x="159" y="-415" width="360" height="120" as="geometry" />
        </mxCell>
        <mxCell id="Mh-NqhdQAYjnupKS_QTz-24" value="&lt;font style=&quot;font-size: 18px;&quot;&gt;Is the object&lt;/font&gt;&lt;div style=&quot;font-size: 18px;&quot;&gt;&lt;font style=&quot;font-size: 18px;&quot;&gt;in blind spot&lt;/font&gt;&lt;/div&gt;" style="rhombus;whiteSpace=wrap;html=1;fillColor=#00AFDB;strokeColor=#00AFDB;fontSize=18;fontStyle=1;fontColor=#FFFFFF;" parent="1" vertex="1">
          <mxGeometry x="75" y="-118" width="210" height="100" as="geometry" />
        </mxCell>
        <mxCell id="Mh-NqhdQAYjnupKS_QTz-25" value="" style="endArrow=classic;html=1;rounded=0;strokeWidth=2;entryX=0.5;entryY=0;entryDx=0;entryDy=0;exitX=0.5;exitY=1;exitDx=0;exitDy=0;" parent="1" source="Mh-NqhdQAYjnupKS_QTz-1" target="Mh-NqhdQAYjnupKS_QTz-24" edge="1">
          <mxGeometry width="50" height="50" relative="1" as="geometry">
            <mxPoint x="297" y="-85" as="sourcePoint" />
            <mxPoint x="347" y="-135" as="targetPoint" />
          </mxGeometry>
        </mxCell>
        <mxCell id="Mh-NqhdQAYjnupKS_QTz-26" value="" style="endArrow=classic;html=1;rounded=0;strokeWidth=2;entryX=0.5;entryY=0;entryDx=0;entryDy=0;exitX=0.5;exitY=1;exitDx=0;exitDy=0;" parent="1" source="Mh-NqhdQAYjnupKS_QTz-24" target="Mh-NqhdQAYjnupKS_QTz-10" edge="1">
          <mxGeometry width="50" height="50" relative="1" as="geometry">
            <mxPoint x="307" y="-75" as="sourcePoint" />
            <mxPoint x="357" y="-125" as="targetPoint" />
          </mxGeometry>
        </mxCell>
        <mxCell id="Mh-NqhdQAYjnupKS_QTz-27" value="" style="endArrow=classic;html=1;rounded=0;strokeWidth=2;exitX=1;exitY=0.5;exitDx=0;exitDy=0;entryX=0;entryY=0.5;entryDx=0;entryDy=0;" parent="1" source="Mh-NqhdQAYjnupKS_QTz-10" target="Mh-NqhdQAYjnupKS_QTz-9" edge="1">
          <mxGeometry width="50" height="50" relative="1" as="geometry">
            <mxPoint x="316" y="82" as="sourcePoint" />
            <mxPoint x="366" y="32" as="targetPoint" />
          </mxGeometry>
        </mxCell>
        <mxCell id="Mh-NqhdQAYjnupKS_QTz-28" value="" style="endArrow=classic;html=1;rounded=0;strokeWidth=2;entryX=0.5;entryY=0;entryDx=0;entryDy=0;exitX=0.5;exitY=1;exitDx=0;exitDy=0;" parent="1" source="Mh-NqhdQAYjnupKS_QTz-3" target="Mh-NqhdQAYjnupKS_QTz-9" edge="1">
          <mxGeometry width="50" height="50" relative="1" as="geometry">
            <mxPoint x="403" y="32" as="sourcePoint" />
            <mxPoint x="453" y="-18" as="targetPoint" />
          </mxGeometry>
        </mxCell>
        <mxCell id="Mh-NqhdQAYjnupKS_QTz-29" value="" style="endArrow=classic;html=1;rounded=0;strokeWidth=2;entryX=0;entryY=0.5;entryDx=0;entryDy=0;exitX=1;exitY=0.5;exitDx=0;exitDy=0;" parent="1" source="Mh-NqhdQAYjnupKS_QTz-24" target="Mh-NqhdQAYjnupKS_QTz-3" edge="1">
          <mxGeometry width="50" height="50" relative="1" as="geometry">
            <mxPoint x="315" y="-34" as="sourcePoint" />
            <mxPoint x="376" y="-57" as="targetPoint" />
          </mxGeometry>
        </mxCell>
        <mxCell id="Mh-NqhdQAYjnupKS_QTz-30" value="YES" style="text;html=1;align=center;verticalAlign=middle;whiteSpace=wrap;rounded=0;fontSize=18;fontStyle=1;fontColor=#00AFDB;" parent="1" vertex="1">
          <mxGeometry x="174" y="16" width="60" height="30" as="geometry" />
        </mxCell>
        <mxCell id="Mh-NqhdQAYjnupKS_QTz-31" value="NO" style="text;html=1;align=center;verticalAlign=middle;whiteSpace=wrap;rounded=0;fontSize=18;fontStyle=1;fontColor=#00AFDB;" parent="1" vertex="1">
          <mxGeometry x="338" y="-97" width="60" height="30" as="geometry" />
        </mxCell>
        <mxCell id="JfQOlPQbR7FnirmzJW87-2" value="" style="group" parent="1" vertex="1" connectable="0">
          <mxGeometry x="396" y="-290" width="307" height="143" as="geometry" />
        </mxCell>
        <mxCell id="JfQOlPQbR7FnirmzJW87-3" value="" style="rounded=0;whiteSpace=wrap;html=1;" parent="JfQOlPQbR7FnirmzJW87-2" vertex="1">
          <mxGeometry width="307" height="143" as="geometry" />
        </mxCell>
        <mxCell id="JfQOlPQbR7FnirmzJW87-4" value="" style="rounded=0;whiteSpace=wrap;html=1;fillColor=#8B4CA6;strokeColor=#8B4CA6;" parent="JfQOlPQbR7FnirmzJW87-2" vertex="1">
          <mxGeometry x="17" y="86" width="175" height="24" as="geometry" />
        </mxCell>
        <mxCell id="JfQOlPQbR7FnirmzJW87-5" value="" style="rounded=0;whiteSpace=wrap;html=1;fillColor=#00AFDB;strokeColor=#009999;" parent="JfQOlPQbR7FnirmzJW87-2" vertex="1">
          <mxGeometry x="17" y="62" width="175" height="24" as="geometry" />
        </mxCell>
        <mxCell id="JfQOlPQbR7FnirmzJW87-6" value="" style="rounded=0;whiteSpace=wrap;html=1;fillColor=#60A917;strokeColor=#60A917;" parent="JfQOlPQbR7FnirmzJW87-2" vertex="1">
          <mxGeometry x="17" y="38" width="175" height="24" as="geometry" />
        </mxCell>
        <mxCell id="JfQOlPQbR7FnirmzJW87-7" value="Legend" style="text;html=1;align=center;verticalAlign=middle;whiteSpace=wrap;rounded=0;fontStyle=5;fontSize=19;" parent="JfQOlPQbR7FnirmzJW87-2" vertex="1">
          <mxGeometry x="74.5" y="2" width="60" height="30" as="geometry" />
        </mxCell>
        <mxCell id="JfQOlPQbR7FnirmzJW87-8" value="Start/ End Point" style="text;html=1;align=left;verticalAlign=middle;whiteSpace=wrap;rounded=0;fontStyle=1;fontSize=14;" parent="JfQOlPQbR7FnirmzJW87-2" vertex="1">
          <mxGeometry x="196" y="35" width="109" height="30" as="geometry" />
        </mxCell>
        <mxCell id="JfQOlPQbR7FnirmzJW87-9" value="Boolean" style="text;html=1;align=left;verticalAlign=middle;whiteSpace=wrap;rounded=0;fontStyle=1;fontSize=14;" parent="JfQOlPQbR7FnirmzJW87-2" vertex="1">
          <mxGeometry x="196" y="59" width="94" height="30" as="geometry" />
        </mxCell>
        <mxCell id="JfQOlPQbR7FnirmzJW87-10" value="Task" style="text;html=1;align=left;verticalAlign=middle;whiteSpace=wrap;rounded=0;fontStyle=1;fontSize=14;" parent="JfQOlPQbR7FnirmzJW87-2" vertex="1">
          <mxGeometry x="196" y="83" width="81" height="30" as="geometry" />
        </mxCell>
        <mxCell id="JfQOlPQbR7FnirmzJW87-11" value="" style="rounded=0;whiteSpace=wrap;html=1;fillColor=#009999;strokeColor=#009999;" parent="JfQOlPQbR7FnirmzJW87-2" vertex="1">
          <mxGeometry x="17" y="110" width="175" height="24" as="geometry" />
        </mxCell>
        <mxCell id="JfQOlPQbR7FnirmzJW87-12" value="Input/ Output" style="text;html=1;align=left;verticalAlign=middle;whiteSpace=wrap;rounded=0;fontStyle=1;fontSize=14;" parent="JfQOlPQbR7FnirmzJW87-2" vertex="1">
          <mxGeometry x="198" y="107" width="92" height="30" as="geometry" />
        </mxCell>
      </root>
    </mxGraphModel>
  </diagram>
</mxfile>
